<?xml version="1.0" encoding="utf-8"?>
<!-- Generator: Adobe Illustrator 20.1.0, SVG Export Plug-In . SVG Version: 6.00 Build 0)  -->
<svg version="1.1" xmlns="http://www.w3.org/2000/svg" xmlns:xlink="http://www.w3.org/1999/xlink" x="0px" y="0px"
   viewBox="0 0 53.2 51.4" style="enable-background:new 0 0 53.2 51.4;" xml:space="preserve">
<style type="text/css">
  .st0{display:none;}
  .st1{display:inline;fill:#929393;}
  .st2{display:inline;fill:#F3F3EF;}
  .st3{display:inline;fill:#FAF9F5;}
  .st4{display:inline;}
  .st5{fill:none;stroke:#FFFFFF;stroke-miterlimit:10;}
  .st6{fill:#424343;}
  .st7{fill:#C3996C;}
  .st8{fill:#F2F2F3;}
  .st9{display:inline;clip-path:url(#SVGID_2_);fill:#5F6062;}
  .st10{display:inline;clip-path:url(#SVGID_2_);}
  .st11{fill:#FFFFFF;}
  .st12{font-family:'Develuz';}
  .st13{font-size:55px;}
  .st14{letter-spacing:1;}
  .st15{display:none;fill:#FFFFFF;}
  .st16{fill:#413639;}
  .st17{display:inline;fill:#F2F2F3;}
  .st18{font-family:'cuyabra-Bold';}
  .st19{font-size:34.6562px;}
  .st20{letter-spacing:3;}
</style>
<g id="Layer_1" class="st0">
  <g>
    <rect x="123.9" y="-264.9" class="st1" width="9.8" height="9.8"/>
    <rect x="123.9" y="-248.6" class="st1" width="9.8" height="9.8"/>
    <rect x="139.7" y="-264.9" class="st1" width="9.8" height="9.8"/>
  </g>
  <path class="st2" d="M268.2-99c-0.3,0.3-0.5,0.8-0.9,0.9c-2.1,0.4,0.4,3.6-2.2,3.4c-0.2,0-0.4-0.8-0.5-1.2
    C264.3-98.3,266-98.8,268.2-99z"/>
  <path class="st3" d="M236.1-97.5c0.4-1.2-1.9-2.7,0.2-3.8c0.8-0.4,1.8,0,2,0.8C238.7-98.7,237.9-97.7,236.1-97.5L236.1-97.5z"/>
  <g class="st4">
    <g>
      <path class="st5" d="M-51.3-106.5"/>
    </g>
  </g>
  <g class="st4">
    
      <text transform="matrix(1 0 0 1 -64.1005 106.3248)" class="st6" style="font-family:'GothamMedium'; font-size:26.1562px; letter-spacing:2;">RICHA</text>
    
      <text transform="matrix(1 0 0 1 49.2057 106.3267)" class="st7" style="font-family:'GothamMedium'; font-size:26.1562px; letter-spacing:2;">NANIWADEKAR</text>
  </g>
  <g class="st4">
    <circle class="st6" cx="115.3" cy="19.7" r="43"/>
  </g>
  <g class="st4">
    <path class="st7" d="M115.3,56.8c-20.5,0-37.1-16.7-37.1-37.1s16.7-37.1,37.1-37.1s37.1,16.7,37.1,37.1S135.8,56.8,115.3,56.8z
       M115.3-15.6c-19.4,0-35.3,15.8-35.3,35.3c0,19.4,15.8,35.3,35.3,35.3s35.3-15.8,35.3-35.3C150.6,0.2,134.8-15.6,115.3-15.6z"/>
  </g>
  <g class="st4">
    <text transform="matrix(1 0 0 1 93.3883 31.8726)" class="st8 st12" style="font-size:72.7726px; letter-spacing:8;">r</text>
    <text transform="matrix(1 0 0 1 115.3414 31.8726)" class="st8 st12" style="font-size:72.7726px; letter-spacing:8;">n</text>
  </g>
</g>
<g id="Layer_2">
  <g class="st0">
    <defs>
      <rect id="SVGID_1_" y="-2.5" width="53.2" height="53.8"/>
    </defs>
    <clipPath id="SVGID_2_" class="st4">
      <use xlink:href="#SVGID_1_"  style="overflow:visible;"/>
    </clipPath>
    <path class="st9" d="M26.6,51.4c14.7,0,26.6-11.5,26.6-25.7C53.2,11.5,41.3,0,26.6,0S0,11.5,0,25.7C0,39.9,11.9,51.4,26.6,51.4"/>
    <g class="st10">
      <text transform="matrix(1 0 0 1 11.1177 34.3081)"><tspan x="0" y="0" class="st11 st12 st13 st14">r</tspan><tspan x="14.9" y="0" class="st11 st12 st13">n</tspan></text>
    </g>
  </g>
  <path class="st15" d="M21.8,16.6c0.2,0.1,0.3,0.2,0.5,0.3c0.1,0.1,0.2,0.3,0.3,0.5c0.1,0.2,0.1,0.4,0.1,0.5c0,0.4-0.1,0.8-0.4,1
    c-0.3,0.3-0.6,0.4-1,0.4h-0.1h-0.5h-0.1c-0.9,0-1.8,0.2-2.6,0.5c-0.8,0.3-1.5,0.8-2.1,1.4c-0.6,0.6-1.1,1.3-1.4,2.1
    c-0.3,0.8-0.5,1.7-0.5,2.6v9.5H11v-9.5c0-1.3,0.3-2.5,0.8-3.7c0.5-1.2,1.2-2.2,2-3c0.9-0.9,1.9-1.6,3-2.1c1.2-0.5,2.4-0.8,3.7-0.8
    h0.1h0.1h0.5h0.1C21.5,16.5,21.6,16.5,21.8,16.6z"/>
  <path class="st15" d="M36.7,17.2c1.2,0.5,2.2,1.2,3,2.1c0.9,0.9,1.5,1.9,2,3.1c0.5,1.2,0.8,2.4,0.8,3.7v9.5h-2.9v-9.5
    c0-0.9-0.2-1.8-0.5-2.6c-0.3-0.8-0.8-1.5-1.4-2.1c-0.6-0.6-1.3-1.1-2.1-1.4c-0.8-0.4-1.7-0.5-2.6-0.5h-0.1h-0.1h-4v16.3h-2.9V18.1
    v-0.2c0-0.4,0.2-0.8,0.5-1c0.3-0.3,0.6-0.4,1-0.4h0.1h4.8h0.5h0.1H33C34.3,16.4,35.5,16.7,36.7,17.2z"/>
  <circle class="st16" cx="26.3" cy="25.9" r="25.4"/>
  <g class="st0">
    <text transform="matrix(1 0 0 1 12.4108 35.5765)" class="st17 st18 st19 st20">r</text>
    <text transform="matrix(1 0 0 1 24.884 35.5765)" class="st17 st18 st19 st20">n</text>
  </g>
  <g>
    <path class="st8" d="M15.6,35.6h-2.4c-0.5,0-0.8-0.3-0.8-0.8v-13c0-3.3,2.6-5.9,5.9-5.9h3.5c0.5,0,0.8,0.3,0.8,0.8v1.2
      c0,1.1-0.9,2-2,2h-2.4c-1.1,0-2,0.9-2,1.9v13C16.3,35.2,16,35.6,15.6,35.6z"/>
    <path class="st8" d="M37.5,35.6c-0.5,0-0.8-0.3-0.8-0.8v-13c0-1.1-0.9-1.9-2-1.9h-5.9v14.9c0,0.5-0.3,0.8-0.8,0.8h-2.4
      c-0.5,0-0.8-0.3-0.8-0.8V16.7c0-0.5,0.3-0.8,0.8-0.8h9c3.3,0,5.9,2.6,5.9,5.9v13c0,0.5-0.3,0.8-0.8,0.8H37.5z"/>
  </g>
</g>
</svg>
